<?xml version="1.0" encoding="UTF-8"?>
<svg xmlns="http://www.w3.org/2000/svg" xmlns:xlink="http://www.w3.org/1999/xlink" width="365pt" height="122.12pt" viewBox="0 0 365 122.12" version="1.1">
<defs>
<clipPath id="clip1">
  <path d="M 0 55 L 57 55 L 57 122.121094 L 0 122.121094 Z M 0 55 "/>
</clipPath>
<clipPath id="clip2">
  <path d="M 5 61 L 92 61 L 92 122.121094 L 5 122.121094 Z M 5 61 "/>
</clipPath>
</defs>
<g id="surface1">
<path style=" stroke:none;fill-rule:nonzero;fill:rgb(0.799561%,0.799561%,0.799561%);fill-opacity:1;" d="M 145.480469 61.515625 L 150.214844 55.5625 L 162.121094 42.890625 L 171.890625 42.890625 L 156.015625 59.835938 L 172.960938 82.429688 L 163.035156 82.429688 L 150.367188 65.027344 L 145.785156 68.84375 L 145.785156 82.429688 L 137.390625 82.429688 L 137.390625 26.710938 L 145.785156 26.710938 L 145.785156 53.882813 L 145.328125 61.515625 L 145.480469 61.515625 "/>
<path style=" stroke:none;fill-rule:nonzero;fill:rgb(0.799561%,0.799561%,0.799561%);fill-opacity:1;" d="M 187.613281 82.429688 L 179.21875 82.429688 L 179.21875 42.890625 L 187.613281 42.890625 Z M 178.761719 32.359375 C 178.761719 30.832031 179.21875 29.761719 179.980469 28.847656 C 180.742188 27.929688 181.964844 27.625 183.492188 27.625 C 185.019531 27.625 186.085938 28.082031 187.003906 28.847656 C 187.917969 29.609375 188.226563 30.832031 188.226563 32.359375 C 188.226563 33.730469 187.765625 34.953125 187.003906 35.714844 C 186.238281 36.480469 185.019531 36.9375 183.492188 36.9375 C 181.964844 36.9375 180.742188 36.480469 179.980469 35.714844 C 179.21875 34.953125 178.761719 33.730469 178.761719 32.359375 "/>
<path style=" stroke:none;fill-rule:nonzero;fill:rgb(0.799561%,0.799561%,0.799561%);fill-opacity:1;" d="M 217.6875 48.996094 C 214.328125 48.996094 211.886719 50.066406 210.359375 52.050781 C 208.832031 54.035156 208.070313 57.394531 208.070313 62.125 L 208.070313 62.738281 C 208.070313 67.621094 208.832031 70.980469 210.359375 73.269531 C 211.886719 75.558594 214.328125 76.476563 217.839844 76.476563 C 220.894531 76.476563 223.03125 75.253906 224.558594 72.964844 C 226.082031 70.675781 226.847656 67.164063 226.847656 62.738281 C 226.847656 53.425781 223.792969 48.996094 217.6875 48.996094 Z M 219.824219 42.128906 C 224.710938 42.128906 228.679688 43.960938 231.425781 47.472656 C 234.175781 50.980469 235.546875 56.019531 235.546875 62.585938 C 235.546875 68.996094 234.175781 74.1875 231.425781 77.695313 C 228.679688 81.207031 224.710938 83.191406 219.824219 83.191406 C 214.785156 83.191406 210.96875 81.359375 208.222656 77.847656 L 207.613281 77.847656 L 206.085938 82.582031 L 199.824219 82.582031 L 199.824219 26.863281 L 208.222656 26.863281 L 208.222656 40.144531 C 208.222656 41.058594 208.222656 42.585938 208.070313 44.570313 C 207.917969 46.554688 207.917969 47.777344 207.917969 48.234375 L 208.222656 48.234375 C 210.664063 44.113281 214.632813 42.128906 219.824219 42.128906 "/>
<path style=" stroke:none;fill-rule:nonzero;fill:rgb(0.799561%,0.799561%,0.799561%);fill-opacity:1;" d="M 257.53125 76.628906 C 260.582031 76.628906 263.027344 75.710938 264.859375 74.03125 C 266.691406 72.355469 267.605469 69.910156 267.605469 66.859375 L 267.605469 63.5 L 262.566406 63.652344 C 258.597656 63.804688 255.699219 64.414063 253.867188 65.636719 C 252.035156 66.859375 251.117188 68.691406 251.117188 71.132813 C 251.117188 72.964844 251.578125 74.339844 252.644531 75.253906 C 253.714844 76.171875 255.394531 76.628906 257.53125 76.628906 Z M 270.046875 82.429688 L 268.367188 76.933594 L 268.0625 76.933594 C 266.230469 79.375 264.246094 81.054688 262.261719 81.820313 C 260.277344 82.582031 257.835938 83.191406 254.78125 83.191406 C 250.964844 83.191406 247.914063 82.125 245.621094 79.988281 C 243.332031 77.847656 242.417969 74.949219 242.417969 71.132813 C 242.417969 67.011719 243.945313 63.957031 246.996094 61.972656 C 250.050781 59.835938 254.628906 58.765625 260.890625 58.613281 L 267.757813 58.460938 L 267.757813 56.324219 C 267.757813 53.730469 267.148438 51.898438 265.925781 50.675781 C 264.703125 49.457031 262.871094 48.84375 260.429688 48.84375 C 258.445313 48.84375 256.460938 49.148438 254.628906 49.761719 C 252.796875 50.371094 250.964844 51.136719 249.285156 51.898438 L 246.539063 45.945313 C 248.675781 44.875 250.964844 43.960938 253.5625 43.347656 C 256.15625 42.738281 258.445313 42.433594 260.734375 42.433594 C 265.773438 42.433594 269.589844 43.503906 272.183594 45.792969 C 274.78125 48.082031 276.003906 51.441406 276.003906 56.171875 L 276.003906 82.429688 L 270.046875 82.429688 "/>
<path style=" stroke:none;fill-rule:nonzero;fill:rgb(0.799561%,0.799561%,0.799561%);fill-opacity:1;" d="M 322.5625 82.429688 L 314.164063 82.429688 L 314.164063 58.003906 C 314.164063 54.953125 313.554688 52.660156 312.335938 51.136719 C 311.113281 49.609375 309.128906 48.84375 306.53125 48.84375 C 303.023438 48.84375 300.425781 49.914063 298.746094 52.050781 C 297.066406 54.1875 296.304688 57.699219 296.304688 62.585938 L 296.304688 82.429688 L 287.910156 82.429688 L 287.910156 42.890625 L 294.472656 42.890625 L 295.695313 48.082031 L 296.152344 48.082031 C 297.371094 46.25 299.050781 44.722656 301.191406 43.65625 C 303.328125 42.585938 305.769531 42.128906 308.515625 42.128906 C 317.980469 42.128906 322.714844 47.011719 322.714844 56.628906 L 322.714844 82.429688 L 322.5625 82.429688 "/>
<path style=" stroke:none;fill-rule:nonzero;fill:rgb(0.799561%,0.799561%,0.799561%);fill-opacity:1;" d="M 346.527344 76.628906 C 349.582031 76.628906 352.023438 75.710938 353.855469 74.03125 C 355.6875 72.355469 356.605469 69.910156 356.605469 66.859375 L 356.605469 63.5 L 351.566406 63.652344 C 347.597656 63.804688 344.695313 64.414063 342.863281 65.636719 C 341.03125 66.859375 340.117188 68.691406 340.117188 71.132813 C 340.117188 72.964844 340.574219 74.339844 341.644531 75.253906 C 342.710938 76.171875 344.390625 76.628906 346.527344 76.628906 Z M 359.046875 82.429688 L 357.367188 76.933594 L 357.0625 76.933594 C 355.230469 79.375 353.246094 81.054688 351.261719 81.820313 C 349.277344 82.582031 346.835938 83.191406 343.78125 83.191406 C 339.964844 83.191406 336.910156 82.125 334.621094 79.988281 C 332.332031 77.847656 331.414063 74.949219 331.414063 71.132813 C 331.414063 67.011719 332.941406 63.957031 335.996094 61.972656 C 339.046875 59.835938 343.628906 58.765625 349.886719 58.613281 L 356.757813 58.460938 L 356.757813 56.324219 C 356.757813 53.730469 356.144531 51.898438 354.925781 50.675781 C 353.703125 49.457031 351.871094 48.84375 349.429688 48.84375 C 347.445313 48.84375 345.460938 49.148438 343.628906 49.761719 C 341.796875 50.371094 339.964844 51.136719 338.285156 51.898438 L 335.535156 45.945313 C 337.675781 44.875 339.964844 43.960938 342.558594 43.347656 C 345.15625 42.738281 347.445313 42.433594 349.734375 42.433594 C 354.773438 42.433594 358.589844 43.503906 361.183594 45.792969 C 363.777344 48.082031 365 51.441406 365 56.171875 L 365 82.429688 L 359.046875 82.429688 "/>
<g clip-path="url(#clip1)" clip-rule="nonzero">
<path style=" stroke:none;fill-rule:nonzero;fill:rgb(0.799561%,61.199951%,56.498718%);fill-opacity:1;" d="M 45.1875 55.714844 L 0 109.90625 L 0 122.121094 L 5.648438 122.121094 L 56.023438 61.820313 C 52.515625 59.53125 49.003906 57.546875 45.1875 55.714844 "/>
</g>
<g clip-path="url(#clip2)" clip-rule="nonzero">
<path style=" stroke:none;fill-rule:nonzero;fill:rgb(24.699402%,74.499512%,68.998718%);fill-opacity:1;" d="M 56.023438 61.820313 L 5.648438 122.121094 L 91.59375 122.121094 C 91.59375 97.542969 77.703125 75.710938 56.023438 61.820313 "/>
</g>
<path style=" stroke:none;fill-rule:nonzero;fill:rgb(20.799255%,20.799255%,20.799255%);fill-opacity:1;" d="M 0 109.90625 L 45.1875 55.714844 C 31.90625 49.457031 16.488281 45.792969 0 45.792969 L 0 109.90625 "/>
<path style=" stroke:none;fill-rule:nonzero;fill:rgb(93.699646%,30.999756%,59.599304%);fill-opacity:1;" d="M 0 -0.00390625 L 0 45.792969 C 16.488281 45.792969 31.753906 49.457031 45.1875 55.714844 L 91.59375 -0.00390625 L 0 -0.00390625 "/>
</g>
</svg>
